<svg xmlns="http://www.w3.org/2000/svg" viewBox="0 0 361.84 45.51"><defs><style>.cls-1{fill:#363;}</style></defs><g id="Layer_2" data-name="Layer 2"><g id="Layer_1-2" data-name="Layer 1"><path class="cls-1" d="M14.05,38.74l-5.2-1.38c-.63-.15-2-.45-4.25-.93l-1.31-.29c-.45-.1-.91-.21-1.37-.34A3.07,3.07,0,0,1,.52,35,1.59,1.59,0,0,1,0,33.87a1.17,1.17,0,0,1,.22-.81A2.62,2.62,0,0,1,1,32.59a8.48,8.48,0,0,0,.8-.4,3.31,3.31,0,0,0,.68-.57,4,4,0,0,0,.75-2.06,25.61,25.61,0,0,0,.22-3.72V22.79A28,28,0,0,0,3.18,19a6.62,6.62,0,0,0-.75-2.48c-.29-.46-.74-1.06-1.33-1.82a8.56,8.56,0,0,1-.61-.85,1.34,1.34,0,0,1-.17-.73,1,1,0,0,1,.52-1,1.94,1.94,0,0,1,1.4,0l.78.25.67.24a13.79,13.79,0,0,0,2,.7,14.09,14.09,0,0,0,1.77.32c.71.1,1.28.2,1.7.3a2.83,2.83,0,0,1,1.4.75,1.67,1.67,0,0,1,.52,1.22,1,1,0,0,1-.17.64,5.12,5.12,0,0,1-.62.53A10.38,10.38,0,0,0,9,18.18a4,4,0,0,0-.76,2.08A25.66,25.66,0,0,0,8,24v4.94A22.4,22.4,0,0,0,8.17,32,4.19,4.19,0,0,0,9,34a3.48,3.48,0,0,0,2.05,1.17,4.09,4.09,0,0,0,3.15-.36,9.72,9.72,0,0,0,2.77-3A9.07,9.07,0,0,1,18.38,30a1.18,1.18,0,0,1,1.28-.17,2,2,0,0,1,.94,1.42,11.12,11.12,0,0,1,.32,2.86c0,.45,0,1.15-.13,2.09a4.53,4.53,0,0,1-1.05,2.9,2.38,2.38,0,0,1-2.19.48C17.15,39.54,16,39.25,14.05,38.74Z"/><path class="cls-1" d="M27.8,40.62a11.2,11.2,0,0,1-3.31-3.86,10.39,10.39,0,0,1-1.21-4.9,7.76,7.76,0,0,1,1.23-4.36,7.16,7.16,0,0,1,3.32-2.75,8.45,8.45,0,0,1,4.58-.52,8.44,8.44,0,0,1,5,2.33,7.13,7.13,0,0,1,1.8,5.17A2.89,2.89,0,0,1,39,33.07a1,1,0,0,1-.73.5,6.75,6.75,0,0,1-1.6,0c-3.24-.19-4.86-.31-8.1-.61a8.44,8.44,0,0,0,.6,1.51,6.89,6.89,0,0,0,2.41,2.82,8,8,0,0,0,3.26,1.24,7.32,7.32,0,0,0,2.39,0,4.34,4.34,0,0,0,1.86-.73,1.55,1.55,0,0,1,1-.42,1,1,0,0,1,.72.81,1.83,1.83,0,0,1-.34.87,7,7,0,0,1-3.34,3,8.53,8.53,0,0,1-4.7.52A10.07,10.07,0,0,1,27.8,40.62Zm6.54-10.29a4.31,4.31,0,0,0-.81-2.63,2.87,2.87,0,0,0-3.7-1,2.55,2.55,0,0,0-1.26,1.34,5.24,5.24,0,0,0-.41,2.29C30.63,30.37,31.87,30.37,34.34,30.33Z"/><path class="cls-1" d="M42.9,43.22a1.48,1.48,0,0,1-.53-1.12,1.16,1.16,0,0,1,.28-.85,3.12,3.12,0,0,1,.91-.56,5.05,5.05,0,0,0,.63-.33,3.12,3.12,0,0,0,.92-.8,4,4,0,0,0,.77-1.63,11.91,11.91,0,0,0,.2-2.5,5.46,5.46,0,0,0-.25-1.85,3,3,0,0,0-.6-1,5.09,5.09,0,0,0-.94-.69,6.42,6.42,0,0,1-.74-.52,2,2,0,0,1-.49-.58,1.42,1.42,0,0,1-.19-.65,1.4,1.4,0,0,1,.76-1.19,9.91,9.91,0,0,1,1.6-.71c.77-.29,1.44-.56,2-.82a6.22,6.22,0,0,1,2.8-.92,1.67,1.67,0,0,1,1,.52,2.09,2.09,0,0,1,.54,1.55,8.59,8.59,0,0,1-.32,2c-.22.88-.39,1.59-.47,2.12a16.89,16.89,0,0,0-.13,2.37,20.2,20.2,0,0,0,.19,3.22,4.55,4.55,0,0,0,.79,1.86,9.48,9.48,0,0,0,1,1,6.33,6.33,0,0,1,.81.9,1.46,1.46,0,0,1,.26.84,1.44,1.44,0,0,1-.54,1.21,1.79,1.79,0,0,1-1.29.36,7.89,7.89,0,0,1-.79-.09l-.63-.12a13.41,13.41,0,0,0-2-.32c-.39,0-1,0-1.86,0s-1.62,0-2.23-.09A2.4,2.4,0,0,1,42.9,43.22ZM46,18.13a3,3,0,0,1,2.38-.76,3.73,3.73,0,0,1,2.41,1.18,3.46,3.46,0,0,1,1,2.44,3.06,3.06,0,0,1-3.4,3.09A3.52,3.52,0,0,1,46,22.87a3.56,3.56,0,0,1-1-2.47A2.9,2.9,0,0,1,46,18.13Z"/><path class="cls-1" d="M60.65,45.06a19.63,19.63,0,0,1-3-.72,1.71,1.71,0,0,1-.78-.47,1.09,1.09,0,0,1-.19-.79,23.37,23.37,0,0,0,.06-2.45,3.86,3.86,0,0,0-.05-.55,3.65,3.65,0,0,1,0-.46,4.75,4.75,0,0,1-.09-.86.87.87,0,0,1,.57-.91.69.69,0,0,1,.34,0,1.21,1.21,0,0,1,.81.42,8.26,8.26,0,0,1,.9,1.15l.37.55a6.54,6.54,0,0,0,2.26,1.84,7,7,0,0,0,3.07.88c1.87.06,2.8-.37,2.8-1.28,0-.39-.34-.75-1-1.08s-1.92-.8-3.75-1.43a12.48,12.48,0,0,1-4.77-2.72,5.35,5.35,0,0,1-1.59-3.93,4,4,0,0,1,1.23-3.08,6.82,6.82,0,0,1,3-1.62,12.78,12.78,0,0,1,3.7-.41,20.42,20.42,0,0,1,3.31.45,9.87,9.87,0,0,0,1.83.26,7.71,7.71,0,0,1,1.36.1c.23.06.34.25.34.56,0,.13,0,.44,0,.94s0,1.16,0,1.93c0,.16,0,.35,0,.55a3.47,3.47,0,0,1,0,.46,5.18,5.18,0,0,1,.09.91,1,1,0,0,1-.56,1,.88.88,0,0,1-.35.06,1.25,1.25,0,0,1-.9-.49,8.44,8.44,0,0,1-.76-1l-.42-.71a4.9,4.9,0,0,0-1.92-1.76,5.72,5.72,0,0,0-2.59-.73c-1.68-.06-2.51.42-2.51,1.47a1.61,1.61,0,0,0,.89,1.31,14.16,14.16,0,0,0,3.17,1.33,16.29,16.29,0,0,1,5.29,2.63,4.75,4.75,0,0,1,1.73,3.82,4.06,4.06,0,0,1-1.1,2.87,6.66,6.66,0,0,1-3,1.79,12.94,12.94,0,0,1-4.3.5A31.72,31.72,0,0,1,60.65,45.06Z"/><path class="cls-1" d="M78.34,43.29a11.43,11.43,0,0,1-1.51-6.37l0-1.42a4.37,4.37,0,0,0-.22-1.57,1.85,1.85,0,0,0-.54-.81,4.79,4.79,0,0,0-.81-.49,1.87,1.87,0,0,1-.86-.63,1.38,1.38,0,0,1-.18-.63,1.27,1.27,0,0,1,.52-1,13.32,13.32,0,0,1,1.71-1.18c.13-.06.47-.26,1-.6a11.76,11.76,0,0,0,1.56-1.17,2.21,2.21,0,0,1,1.51-.58,1.43,1.43,0,0,1,1.29.58,1.83,1.83,0,0,1,.28,1.07,14.65,14.65,0,0,1-.22,1.67c-.18,1.15-.29,2.15-.38,2.92A29,29,0,0,0,81.43,36a7.54,7.54,0,0,0,.91,3.85,3,3,0,0,0,2.87,1.53,3.37,3.37,0,0,0,3-2.09,11,11,0,0,0,1-4.92,1.6,1.6,0,0,0-.35-1.14,3.14,3.14,0,0,0-1-.64,3,3,0,0,1-.89-.5,1.11,1.11,0,0,1-.28-.86,1.5,1.5,0,0,1,.52-1.05A10.89,10.89,0,0,1,89,28.93l.57-.37.56-.33a18.05,18.05,0,0,0,1.67-1.07,2.89,2.89,0,0,1,1.61-.6,1.27,1.27,0,0,1,1.2.51,1.35,1.35,0,0,1,.25.81,3.26,3.26,0,0,1-.14.81,6.6,6.6,0,0,0-.18.68,13.21,13.21,0,0,0-.69,4.1q0,5.41,1,7.14a1.54,1.54,0,0,0,.45.51,5,5,0,0,0,.62.32,2,2,0,0,1,.61.36,1.19,1.19,0,0,1,.27.73,1.16,1.16,0,0,1-.58,1.27,5.26,5.26,0,0,1-1.44.51l-1,.19a12.62,12.62,0,0,0-1.3.37,6,6,0,0,1-1.35.33,1.09,1.09,0,0,1-.85-.31,2.14,2.14,0,0,1-.47-1.15c-.11-.56-.2-1.31-.29-2.23a6.89,6.89,0,0,1-2.14,2.92,6.06,6.06,0,0,1-3.65,1.08C81.14,45.56,79.35,44.81,78.34,43.29Z"/><path class="cls-1" d="M99.38,44.26a1.22,1.22,0,0,1-.53-1,1.33,1.33,0,0,1,.28-.9,3.73,3.73,0,0,1,.91-.71c.09-.05.3-.19.63-.43a4.17,4.17,0,0,0,.92-1,4.91,4.91,0,0,0,.77-1.75,12.46,12.46,0,0,0,.2-2.54A5.93,5.93,0,0,0,102.3,34a3.22,3.22,0,0,0-.65-1.11,5.6,5.6,0,0,0-1-.79,3.63,3.63,0,0,1-1.13-1,1.26,1.26,0,0,1-.19-.62,1.7,1.7,0,0,1,.76-1.31,3.69,3.69,0,0,1,.64-.41l.49-.25a8.1,8.1,0,0,0,1.76-1l.41-.3.44-.29a12.81,12.81,0,0,1,1.23-.86,2.34,2.34,0,0,1,1-.3c1-.07,1.57.62,1.57,2.06a12.88,12.88,0,0,1-.15,1.78,9.47,9.47,0,0,0-.13,1.11A15.43,15.43,0,0,1,109.45,28,18,18,0,0,1,112,25.74a6.49,6.49,0,0,1,2.21-1.13,4.55,4.55,0,0,1,.63-.12c.71-.06,1,.24,1,.89,0,0,0,.32-.13.83,0,.11-.09.54-.19,1.28a17,17,0,0,0-.16,2.28,13.82,13.82,0,0,0,.13,1.69c.08.66.12,1.11.12,1.34a1.51,1.51,0,0,1-.72,1.52.77.77,0,0,1-.35.09,1,1,0,0,1-.83-.32,11.66,11.66,0,0,1-1-1.2,13.37,13.37,0,0,0-1-1.24,2,2,0,0,0-1.57-.5,2.77,2.77,0,0,0-2,1.25,5.94,5.94,0,0,0-1,3.54,10,10,0,0,0,.27,2.39,3.94,3.94,0,0,0,.71,1.47,2.14,2.14,0,0,0,.8.62,7.44,7.44,0,0,0,1.15.37,4.37,4.37,0,0,1,1.25.47,1,1,0,0,1,.39.94,1.58,1.58,0,0,1-.54,1.24,2,2,0,0,1-1.29.54,9,9,0,0,1-.91,0h-.91a24,24,0,0,0-2.59,0c-.38,0-1.09.12-2.14.26s-2,.26-2.58.29A2.06,2.06,0,0,1,99.38,44.26Z"/><path class="cls-1" d="M121.92,42a7.57,7.57,0,0,1-3.31-3,8.63,8.63,0,0,1-1.21-4.56,9.54,9.54,0,0,1,1.23-4.7A10.72,10.72,0,0,1,122,26.07a9.86,9.86,0,0,1,4.58-1.69,6.7,6.7,0,0,1,5.05,1.09q1.78,1.44,1.79,4.74a3.31,3.31,0,0,1-.22,1.4,1.36,1.36,0,0,1-.73.66,7,7,0,0,1-1.6.4c-3.24.59-4.86.87-8.1,1.42a6.58,6.58,0,0,0,.6,1.36,4.79,4.79,0,0,0,2.41,2.2,6.74,6.74,0,0,0,3.26.42,8.48,8.48,0,0,0,2.4-.62,6.13,6.13,0,0,0,1.85-1.17,2,2,0,0,1,.95-.65.66.66,0,0,1,.38.12.6.6,0,0,1,.34.52,2.34,2.34,0,0,1-.34,1A10,10,0,0,1,131.23,41a10.34,10.34,0,0,1-4.7,1.67A8.47,8.47,0,0,1,121.92,42Zm6.54-12a3.46,3.46,0,0,0-.81-2.43,2.26,2.26,0,0,0-2-.77,3.59,3.59,0,0,0-1.7.71,3.8,3.8,0,0,0-1.26,1.67,6,6,0,0,0-.41,2.4C124.75,31,126,30.65,128.46,30Z"/><path class="cls-1" d="M151.5,38a9.78,9.78,0,0,1-4.3-3.88,11.22,11.22,0,0,1-1.58-5.91,13.1,13.1,0,0,1,1.62-6.29,15.11,15.11,0,0,1,4.37-5,12.71,12.71,0,0,1,5.89-2.44,13.46,13.46,0,0,1,2.2-.15,16,16,0,0,1,1.93.21,6.35,6.35,0,0,0,2,.1,5.25,5.25,0,0,0,.66-.15c.69-.19,1.21-.33,1.54-.38a1.31,1.31,0,0,1,1.06.17,1.43,1.43,0,0,1,.3,1.06,21.67,21.67,0,0,1-.38,3.27,8.42,8.42,0,0,1-.76,2.75,1.68,1.68,0,0,1-1.13.82c-.59.08-1.18-.3-1.76-1.14a8.52,8.52,0,0,0-2.84-2.74,5.77,5.77,0,0,0-3.62-.56,6.58,6.58,0,0,0-3.26,1.39A7.86,7.86,0,0,0,151.15,22a9,9,0,0,0,.38,8.15,7.34,7.34,0,0,0,3.23,2.94,7.91,7.91,0,0,0,4.57.62,8.28,8.28,0,0,0,3.79-1.5,10.81,10.81,0,0,0,2.82-3,11.47,11.47,0,0,1,.82-1.12,1,1,0,0,1,1.1-.38c.23.09.35.34.35.74a4.07,4.07,0,0,1-.28,1.3A16.74,16.74,0,0,1,164,35.82a11.2,11.2,0,0,1-6.49,3A10.48,10.48,0,0,1,151.5,38Z"/><path class="cls-1" d="M175.23,35.19a7.31,7.31,0,0,1-3.4-2.81,8,8,0,0,1-1.26-4.49,9.6,9.6,0,0,1,1.26-4.75,11.5,11.5,0,0,1,3.42-3.8,10.63,10.63,0,0,1,4.71-1.9,8.92,8.92,0,0,1,4.71.5,7.22,7.22,0,0,1,3.41,2.77,7.93,7.93,0,0,1,1.26,4.48A9.76,9.76,0,0,1,188.08,30a11.18,11.18,0,0,1-3.41,3.83A10.65,10.65,0,0,1,180,35.71,9,9,0,0,1,175.23,35.19ZM179,31a4.18,4.18,0,0,0,3.22,1.07A2.57,2.57,0,0,0,184,31a3.73,3.73,0,0,0,.58-2.17,8.66,8.66,0,0,0-.79-3.44A9,9,0,0,0,182.3,23a7.87,7.87,0,0,0-2.17-1.83,3.62,3.62,0,0,0-2.31-.51,2.44,2.44,0,0,0-1.74,1,3.86,3.86,0,0,0-.6,2.23,9.07,9.07,0,0,0,1,3.77A8.85,8.85,0,0,0,179,31Z"/><path class="cls-1" d="M196.05,32.21a7.37,7.37,0,0,1-3.4-2.81,8,8,0,0,1-1.26-4.5,9.62,9.62,0,0,1,1.26-4.75,11.57,11.57,0,0,1,3.42-3.79,10.48,10.48,0,0,1,4.71-1.88,8.92,8.92,0,0,1,4.71.53,7.36,7.36,0,0,1,3.42,2.8,8.09,8.09,0,0,1,1.26,4.5,9.8,9.8,0,0,1-1.26,4.76,11.22,11.22,0,0,1-3.42,3.8,10.6,10.6,0,0,1-4.71,1.88A8.86,8.86,0,0,1,196.05,32.21ZM199.79,28A4.16,4.16,0,0,0,203,29.1a2.56,2.56,0,0,0,1.84-1,3.65,3.65,0,0,0,.58-2.16,8.74,8.74,0,0,0-.79-3.45,9.46,9.46,0,0,0-1.52-2.42A8.28,8.28,0,0,0,201,18.22a3.63,3.63,0,0,0-2.31-.52,2.43,2.43,0,0,0-1.74,1,4,4,0,0,0-.59,2.23,9,9,0,0,0,.94,3.77A9,9,0,0,0,199.79,28Z"/><path class="cls-1" d="M211.73,38.5a1.06,1.06,0,0,1-.52-.9,1.29,1.29,0,0,1,.15-.66,3,3,0,0,1,.54-.59A6.39,6.39,0,0,0,213,35a7.69,7.69,0,0,0,.77-2.29,21.29,21.29,0,0,0,.33-4.21V23.37a20.07,20.07,0,0,0-.25-3.43,5.55,5.55,0,0,0-.72-2.11c-.3-.43-.67-.9-1-1.35a9,9,0,0,1-.76-1,1.29,1.29,0,0,1-.19-.67,1.74,1.74,0,0,1,.54-1.08,2.25,2.25,0,0,1,1.38-.84,2.89,2.89,0,0,1,1.17.11,12,12,0,0,1,1.67.66,3.54,3.54,0,0,0,1.95.35A4.7,4.7,0,0,0,220,13a10,10,0,0,1,1.7-1,6.3,6.3,0,0,1,1.92-.51,7.24,7.24,0,0,1,4.29.72,7.52,7.52,0,0,1,3.09,3,8.73,8.73,0,0,1,1.13,4.44,9.85,9.85,0,0,1-1.21,4.81,10.41,10.41,0,0,1-3.31,3.67A10.14,10.14,0,0,1,223,29.85a6.76,6.76,0,0,1-4.28-.73V32a2.19,2.19,0,0,0,.93,2,5.69,5.69,0,0,0,2.57.81,2.2,2.2,0,0,1,1.1.4,1,1,0,0,1,.44.83,1.53,1.53,0,0,1-.39,1,1.93,1.93,0,0,1-1.22.54c-.29,0-1,.07-2.07.13s-2,.11-2.34.16-1.23.2-2.36.43-1.82.36-2.2.41A2,2,0,0,1,211.73,38.5ZM219.4,24A5.25,5.25,0,0,0,221,26.2a3,3,0,0,0,2.27.62,2.66,2.66,0,0,0,2.08-1.48,7,7,0,0,0,.72-3.39,11.28,11.28,0,0,0-.53-3.4,6.27,6.27,0,0,0-1.61-2.68,3.05,3.05,0,0,0-2.58-.82c-1.79.22-2.68,1.86-2.68,4.9,0,.44,0,.78,0,1A9.71,9.71,0,0,0,219.4,24Z"/><path class="cls-1" d="M238.66,26.92a7.65,7.65,0,0,1-3.31-3,8.48,8.48,0,0,1-1.21-4.55,9.57,9.57,0,0,1,1.23-4.71A10.51,10.51,0,0,1,238.69,11a9.44,9.44,0,0,1,4.58-1.67,6.69,6.69,0,0,1,5,1.19q1.8,1.49,1.8,4.8a3.42,3.42,0,0,1-.22,1.39,1.32,1.32,0,0,1-.73.64,7.57,7.57,0,0,1-1.6.35c-3.24.51-4.86.77-8.1,1.32a6.24,6.24,0,0,0,.6,1.35,4.77,4.77,0,0,0,2.41,2.21,6.87,6.87,0,0,0,3.26.48,8,8,0,0,0,2.39-.57A5.63,5.63,0,0,0,250,21.42a1.83,1.83,0,0,1,1-.61.66.66,0,0,1,.38.12.64.64,0,0,1,.34.54,2.19,2.19,0,0,1-.34.94A9.59,9.59,0,0,1,248,26.09a10.51,10.51,0,0,1-4.7,1.58A8.85,8.85,0,0,1,238.66,26.92ZM245.19,15a3.53,3.53,0,0,0-.8-2.45,2.27,2.27,0,0,0-2-.79,3.44,3.44,0,0,0-1.7.7,3.7,3.7,0,0,0-1.26,1.66,6.08,6.08,0,0,0-.41,2.41C241.49,15.92,242.72,15.62,245.19,15Z"/><path class="cls-1" d="M253.76,26.15a1.19,1.19,0,0,1-.53-1,1.33,1.33,0,0,1,.28-.9,4,4,0,0,1,.91-.73,6.74,6.74,0,0,0,.63-.44,4,4,0,0,0,.92-1,4.91,4.91,0,0,0,.77-1.75,12.46,12.46,0,0,0,.2-2.54,5.88,5.88,0,0,0-.26-1.92,3.08,3.08,0,0,0-.65-1.1,4.8,4.8,0,0,0-1-.78,3.62,3.62,0,0,1-1.13-1,1.26,1.26,0,0,1-.19-.62,1.74,1.74,0,0,1,.76-1.32,3,3,0,0,1,.64-.42l.49-.25a8.17,8.17,0,0,0,1.76-1l.41-.29.44-.3A12.37,12.37,0,0,1,259.46,8a2.32,2.32,0,0,1,1-.29c1-.07,1.57.63,1.57,2.08a12.87,12.87,0,0,1-.15,1.77,10.06,10.06,0,0,0-.13,1.11,14.86,14.86,0,0,1,2.13-2.75,17.27,17.27,0,0,1,2.56-2.19,6,6,0,0,1,2.21-1,3.54,3.54,0,0,1,.63-.09c.71,0,1,.28,1,.93,0,.05,0,.32-.12.83,0,.1-.09.53-.19,1.27a16.85,16.85,0,0,0-.16,2.27,14.1,14.1,0,0,0,.13,1.7c.08.66.12,1.12.12,1.35,0,.77-.24,1.27-.72,1.47a.67.67,0,0,1-.35.08,1,1,0,0,1-.83-.36,10.65,10.65,0,0,1-1-1.23,14.93,14.93,0,0,0-1-1.27,2.06,2.06,0,0,0-1.58-.56,2.74,2.74,0,0,0-2,1.21,5.89,5.89,0,0,0-1,3.53,10,10,0,0,0,.27,2.39,4.1,4.1,0,0,0,.71,1.49,2.28,2.28,0,0,0,.8.63,8.37,8.37,0,0,0,1.15.4,4.27,4.27,0,0,1,1.25.5,1.09,1.09,0,0,1,.39,1,1.54,1.54,0,0,1-.54,1.22,2.07,2.07,0,0,1-1.29.51c-.29,0-.6,0-.91,0h-.91a22.26,22.26,0,0,0-2.59,0c-.38,0-1.09.11-2.14.26s-2,.26-2.58.3A2.05,2.05,0,0,1,253.76,26.15Z"/><path class="cls-1" d="M286,24a8.16,8.16,0,0,1-2.11-3.87,12.73,12.73,0,0,1-2.54,2.85,13.38,13.38,0,0,1-3.07,1.95,7.6,7.6,0,0,1-2.87.75,2.73,2.73,0,0,1-1.76-.46,3.27,3.27,0,0,1-1.26-2.86,9.11,9.11,0,0,1,.94-3.76,15.69,15.69,0,0,1,2.73-4,16.78,16.78,0,0,1,4.11-3.28,9,9,0,0,0-3.53-.5l-1.07.06c-.21,0-.5,0-.88,0a1.58,1.58,0,0,1-1.18-.36,1.23,1.23,0,0,1-.43-1c0-.27.29-.6.85-1a8.86,8.86,0,0,1,2.22-1A9.77,9.77,0,0,1,279,7a9.91,9.91,0,0,1,3.08.38,8.3,8.3,0,0,1,2.5,1.33,12.75,12.75,0,0,1,2-.85,5.81,5.81,0,0,1,1.72-.31,1.44,1.44,0,0,1,1,.33,1.12,1.12,0,0,1,.37.79,1.39,1.39,0,0,1-.22.72,7.7,7.7,0,0,1-.66.94l-.41.58-.44.64a4.07,4.07,0,0,0-.69,2.17,5.29,5.29,0,0,0,.25,1.53c.17.56.44,1.26.79,2.1a12,12,0,0,0,1,1.9c.35.55.79,1.16,1.26,1.81s.64,1,.8,1.23a1.41,1.41,0,0,1,.23.74,2.08,2.08,0,0,1-.8,1.55,2.56,2.56,0,0,1-1.78.71A4.35,4.35,0,0,1,286,24Zm-6.78-3.73a2.45,2.45,0,0,0,1.3-.49,6.11,6.11,0,0,0,1.38-1.43,5.15,5.15,0,0,0,1-3.07,4.32,4.32,0,0,0-.5-2.1A13.6,13.6,0,0,0,279.47,16,5.35,5.35,0,0,0,278,19a1.12,1.12,0,0,0,.47,1A1.18,1.18,0,0,0,279.24,20.22Z"/><path class="cls-1" d="M298.21,24.61a7.5,7.5,0,0,1-2.14-3.35,12.17,12.17,0,0,1-.57-4.72c0-.76.06-1.25.06-1.48a9.12,9.12,0,0,0-.23-2.34,1.94,1.94,0,0,0-.59-1,3,3,0,0,0-.91-.39,2.83,2.83,0,0,1-.65-.23,1.2,1.2,0,0,1-.42-.42,1.29,1.29,0,0,1-.19-.63,1.55,1.55,0,0,1,.75-1.25,7.73,7.73,0,0,1,1-.63,23.38,23.38,0,0,0,2.24-1.48,12,12,0,0,0,1.23-1.16,8.74,8.74,0,0,1,1.06-1,1.28,1.28,0,0,1,.86-.29,1.14,1.14,0,0,1,.54.14A1.5,1.5,0,0,1,301,5.78a10.84,10.84,0,0,1-.22,1.66c-.18.94-.24,1.39-.22,1.28,2.76,0,4.14.09,6.9.2.71,0,1.07.26,1.07.7a1.74,1.74,0,0,1-.16.56c-.06.12-.25.48-.55,1.08a2.19,2.19,0,0,1-1.26,1.16,4.84,4.84,0,0,1-2.06.09c-1.7-.22-2.56-.33-4.26-.53q-.12,1.48-.12,2.61a12.52,12.52,0,0,0,.5,3.71A6.11,6.11,0,0,0,302,20.79a3,3,0,0,0,2,1,5.52,5.52,0,0,0,2-.21,5.32,5.32,0,0,0,1.58-.93,1.5,1.5,0,0,1,.94-.46.67.67,0,0,1,.38.18.76.76,0,0,1,.34.59,1.92,1.92,0,0,1-.34.89,7.7,7.7,0,0,1-7.41,4.12A5.26,5.26,0,0,1,298.21,24.61Z"/><path class="cls-1" d="M311.22,25.91a1.43,1.43,0,0,1-.54-1.1A1.22,1.22,0,0,1,311,24a3.17,3.17,0,0,1,.92-.59c.08,0,.29-.15.63-.34a3.17,3.17,0,0,0,.91-.82,3.91,3.91,0,0,0,.77-1.63,11.8,11.8,0,0,0,.21-2.5,5.68,5.68,0,0,0-.25-1.85,2.83,2.83,0,0,0-.6-1,4.48,4.48,0,0,0-.95-.68,8.16,8.16,0,0,1-.74-.51,2,2,0,0,1-.49-.57,1.46,1.46,0,0,1-.18-.65,1.42,1.42,0,0,1,.75-1.19,8.08,8.08,0,0,1,1.61-.75c.76-.29,1.44-.56,2-.83a6,6,0,0,1,2.81-.88,1.78,1.78,0,0,1,1,.55,2.19,2.19,0,0,1,.53,1.57,8.29,8.29,0,0,1-.31,2c-.23.88-.39,1.58-.48,2.11a17.23,17.23,0,0,0-.12,2.37,19.28,19.28,0,0,0,.19,3.23,4.65,4.65,0,0,0,.78,1.88,11.16,11.16,0,0,0,.95,1,7.76,7.76,0,0,1,.82,1,1.47,1.47,0,0,1,.25.85,1.37,1.37,0,0,1-.54,1.18,1.79,1.79,0,0,1-1.29.31l-.78-.12-.63-.13a14.07,14.07,0,0,0-2.05-.37,18.1,18.1,0,0,0-1.86-.05c-.88,0-1.63,0-2.24-.07A2.35,2.35,0,0,1,311.22,25.91ZM314.35.77A3,3,0,0,1,316.73,0a3.63,3.63,0,0,1,2.41,1.23,3.55,3.55,0,0,1,1,2.47,2.91,2.91,0,0,1-1,2.27,3,3,0,0,1-2.41.74,3.64,3.64,0,0,1-2.38-1.22,3.55,3.55,0,0,1-1-2.47A2.91,2.91,0,0,1,314.35.77Z"/><path class="cls-1" d="M332.64,28.78a5.86,5.86,0,0,1-.92-1.43c-1.42-2.81-2.13-4.21-3.56-7-.33-.64-.57-1.11-.72-1.43-.86-1.67-1.53-2.95-2-3.85a13.68,13.68,0,0,0-1.29-2,10.47,10.47,0,0,0-1.1-1.17,5.78,5.78,0,0,1-.57-.58.84.84,0,0,1-.15-.52.86.86,0,0,1,.37-.76,1.46,1.46,0,0,1,1-.17l1.32.23c1,.21,1.75.36,2.34.44s.92.12,1.32.15l1,.09c.66,0,1.23.09,1.67.16a1.79,1.79,0,0,1,1,.46,1.14,1.14,0,0,1,.39.86.54.54,0,0,1-.15.4,2.9,2.9,0,0,1-.51.35,2.27,2.27,0,0,0-.41.25,1.3,1.3,0,0,0-.5.61,1.07,1.07,0,0,0-.1.49,5.27,5.27,0,0,0,.59,2c.39.86,1,2.13,1.93,3.81l1.2,2.25.91-1.58c.86-1.51,1.46-2.62,1.8-3.34a4.39,4.39,0,0,0,.5-1.8,1.69,1.69,0,0,0-.12-.68,2.18,2.18,0,0,0-.38-.62q-.22-.26-.63-.63a6.25,6.25,0,0,1-.52-.52.69.69,0,0,1-.17-.43.83.83,0,0,1,.36-.74,1.41,1.41,0,0,1,1-.12c.38.07.87.2,1.45.36l.83.22c.33.08.68.16,1.06.23a5.43,5.43,0,0,0,.72.1l.57.06a6.56,6.56,0,0,1,1.2.15,2,2,0,0,1,1,.51,1.2,1.2,0,0,1,.4.88.61.61,0,0,1-.16.44,2.5,2.5,0,0,1-.51.37,5.9,5.9,0,0,0-1.1.85,35.82,35.82,0,0,0-4.25,6c-1.37,2.26-2.06,3.4-3.43,5.69a6.24,6.24,0,0,1-.9,1.25.92.92,0,0,1-.8.23A1.81,1.81,0,0,1,332.64,28.78Z"/><path class="cls-1" d="M348.84,31a12.3,12.3,0,0,1-3.3-4,10.62,10.62,0,0,1-1.22-4.94,7.56,7.56,0,0,1,1.23-4.32,6.59,6.59,0,0,1,3.33-2.59,7.79,7.79,0,0,1,4.58-.14,9.35,9.35,0,0,1,5,2.95,8.14,8.14,0,0,1,1.79,5.44,2.7,2.7,0,0,1-.22,1.31.8.8,0,0,1-.72.38,7.93,7.93,0,0,1-1.61-.21c-3.24-.65-4.85-.94-8.09-1.46a9.48,9.48,0,0,0,.6,1.56,7.85,7.85,0,0,0,2.41,3,9.24,9.24,0,0,0,3.26,1.59,7.77,7.77,0,0,0,2.39.27,4,4,0,0,0,1.86-.44,1.23,1.23,0,0,1,.94-.27.91.91,0,0,1,.38.26,1,1,0,0,1,.35.67,1.57,1.57,0,0,1-.35.81,5.73,5.73,0,0,1-3.34,2.48,9.12,9.12,0,0,1-4.69-.06A11.93,11.93,0,0,1,348.84,31Zm6.54-9.69a4.79,4.79,0,0,0-.8-2.73,3.36,3.36,0,0,0-2-1.47,2.76,2.76,0,0,0-1.7.12,2.3,2.3,0,0,0-1.26,1.25,5,5,0,0,0-.41,2.27C351.68,21,352.91,21.08,355.38,21.34Z"/></g></g></svg>